<svg width="960" height="640" viewBox="0 0 960 640" fill="none" xmlns="http://www.w3.org/2000/svg">
  <defs>
    <linearGradient id="bg" x1="120" y1="0" x2="780" y2="640" gradientUnits="userSpaceOnUse">
      <stop stop-color="#F3EAD8"/>
      <stop offset="0.5" stop-color="#E6F0FF"/>
      <stop offset="1" stop-color="#D7E7FF"/>
    </linearGradient>
    <linearGradient id="glass" x1="0" y1="0" x2="0" y2="1">
      <stop stop-color="#8BD6C1" stop-opacity="0.92"/>
      <stop offset="1" stop-color="#3989A7" stop-opacity="0.88"/>
    </linearGradient>
    <linearGradient id="sunset" x1="0" y1="0" x2="1" y2="0">
      <stop stop-color="#FFB169" stop-opacity="0.85"/>
      <stop offset="1" stop-color="#FF7A8A" stop-opacity="0.82"/>
    </linearGradient>
    <filter id="shadow" x="-20" y="-20" width="1000" height="700" filterUnits="userSpaceOnUse" color-interpolation-filters="sRGB">
      <feDropShadow dx="0" dy="12" stdDeviation="26" flood-color="#1a2233" flood-opacity="0.18"/>
    </filter>
  </defs>
  <rect width="960" height="640" rx="26" fill="url(#bg)"/>
  <rect x="46" y="120" width="260" height="420" rx="26" fill="#133E57" fill-opacity="0.08"/>
  <rect x="326" y="90" width="520" height="440" rx="28" fill="#0F314F" fill-opacity="0.08"/>
  <rect x="90" y="168" width="190" height="340" rx="22" fill="#0E304D" fill-opacity="0.08"/>

  <rect x="134" y="208" width="130" height="260" rx="18" fill="#1A3852" fill-opacity="0.16"/>
  <rect x="134" y="208" width="130" height="260" rx="18" fill="url(#glass)" filter="url(#shadow)"/>
  <g fill="#E7F6FF" fill-opacity="0.9">
    <rect x="152" y="232" width="28" height="18" rx="4"/>
    <rect x="192" y="232" width="28" height="18" rx="4"/>
    <rect x="152" y="264" width="68" height="18" rx="4"/>
    <rect x="152" y="296" width="68" height="18" rx="4"/>
    <rect x="152" y="328" width="28" height="18" rx="4"/>
    <rect x="192" y="328" width="28" height="18" rx="4"/>
  </g>

  <rect x="350" y="146" width="430" height="320" rx="24" fill="#0D2C45" fill-opacity="0.08"/>
  <rect x="380" y="172" width="370" height="270" rx="22" fill="white" fill-opacity="0.82" filter="url(#shadow)"/>
  <rect x="380" y="172" width="370" height="270" rx="22" fill="url(#sunset)" fill-opacity="0.46"/>
  <g fill="#0E304D" fill-opacity="0.55">
    <rect x="412" y="208" width="62" height="160" rx="12"/>
    <rect x="488" y="208" width="62" height="130" rx="12"/>
    <rect x="564" y="208" width="62" height="190" rx="12"/>
    <rect x="640" y="208" width="62" height="110" rx="12"/>
  </g>

  <rect x="260" y="380" width="440" height="58" rx="24" fill="#0E304D" fill-opacity="0.12"/>
  <rect x="260" y="380" width="440" height="58" rx="24" fill="url(#glass)" fill-opacity="0.58"/>
  <rect x="300" y="394" width="110" height="30" rx="14" fill="#F5B163" fill-opacity="0.9"/>
  <rect x="432" y="394" width="110" height="30" rx="14" fill="#89D4C5" fill-opacity="0.9"/>
  <rect x="564" y="394" width="110" height="30" rx="14" fill="#FF8A9A" fill-opacity="0.9"/>

  <circle cx="780" cy="150" r="48" fill="#FFB169" fill-opacity="0.45"/>
  <circle cx="118" cy="460" r="52" fill="#8BD6C1" fill-opacity="0.35"/>
  <circle cx="312" cy="110" r="36" fill="#FF8A9A" fill-opacity="0.36"/>
</svg>
