<svg width="960" height="480" viewBox="0 0 960 480" fill="none" xmlns="http://www.w3.org/2000/svg">
  <defs>
    <linearGradient id="bg2" x1="0" y1="0" x2="1" y2="1">
      <stop stop-color="#F4EEE3"/>
      <stop offset="1" stop-color="#DFF1FF"/>
    </linearGradient>
    <linearGradient id="card" x1="0" y1="0" x2="1" y2="1">
      <stop stop-color="#FFFFFF" stop-opacity="0.92"/>
      <stop offset="1" stop-color="#F6FBFF" stop-opacity="0.88"/>
    </linearGradient>
    <linearGradient id="accent" x1="0" y1="0" x2="1" y2="0">
      <stop stop-color="#FFB169"/>
      <stop offset="1" stop-color="#83D5C5"/>
    </linearGradient>
    <filter id="drop" x="-20" y="-20" width="1000" height="520" filterUnits="userSpaceOnUse" color-interpolation-filters="sRGB">
      <feDropShadow dx="0" dy="14" stdDeviation="18" flood-color="#172235" flood-opacity="0.18"/>
    </filter>
  </defs>
  <rect width="960" height="480" rx="26" fill="url(#bg2)"/>
  <rect x="120" y="120" width="220" height="260" rx="24" fill="url(#card)" filter="url(#drop)"/>
  <rect x="170" y="150" width="120" height="14" rx="7" fill="#133E57" fill-opacity="0.6"/>
  <rect x="156" y="180" width="160" height="12" rx="6" fill="#133E57" fill-opacity="0.4"/>
  <rect x="156" y="205" width="140" height="12" rx="6" fill="#133E57" fill-opacity="0.32"/>
  <rect x="156" y="230" width="176" height="12" rx="6" fill="#133E57" fill-opacity="0.24"/>
  <rect x="156" y="282" width="92" height="36" rx="12" fill="url(#accent)"/>
  <rect x="176" y="330" width="132" height="12" rx="6" fill="#133E57" fill-opacity="0.28"/>

  <rect x="380" y="90" width="240" height="300" rx="24" fill="url(#card)" filter="url(#drop)" transform="rotate(5 380 90)"/>
  <rect x="432" y="136" width="120" height="14" rx="7" fill="#0F314F" fill-opacity="0.6" transform="rotate(5 432 136)"/>
  <rect x="410" y="168" width="160" height="12" rx="6" fill="#0F314F" fill-opacity="0.36" transform="rotate(5 410 168)"/>
  <rect x="410" y="195" width="186" height="12" rx="6" fill="#0F314F" fill-opacity="0.32" transform="rotate(5 410 195)"/>
  <rect x="428" y="226" width="120" height="12" rx="6" fill="#0F314F" fill-opacity="0.28" transform="rotate(5 428 226)"/>
  <rect x="450" y="260" width="110" height="36" rx="12" fill="#FF8A9A" transform="rotate(5 450 260)"/>
  <rect x="430" y="304" width="162" height="12" rx="6" fill="#0F314F" fill-opacity="0.28" transform="rotate(5 430 304)"/>

  <rect x="630" y="140" width="210" height="230" rx="24" fill="url(#card)" filter="url(#drop)" transform="rotate(-6 630 140)"/>
  <rect x="662" y="170" width="92" height="14" rx="7" fill="#0E304D" fill-opacity="0.6" transform="rotate(-6 662 170)"/>
  <rect x="646" y="198" width="160" height="12" rx="6" fill="#0E304D" fill-opacity="0.34" transform="rotate(-6 646 198)"/>
  <rect x="646" y="224" width="136" height="12" rx="6" fill="#0E304D" fill-opacity="0.32" transform="rotate(-6 646 224)"/>
  <rect x="662" y="252" width="176" height="12" rx="6" fill="#0E304D" fill-opacity="0.28" transform="rotate(-6 662 252)"/>
  <rect x="684" y="286" width="104" height="36" rx="12" fill="#83D5C5" transform="rotate(-6 684 286)"/>
  <rect x="660" y="326" width="152" height="12" rx="6" fill="#0E304D" fill-opacity="0.24" transform="rotate(-6 660 326)"/>
</svg>
